<mxfile host="app.diagrams.net" modified="2024-01-16T17:11:52.847Z" agent="Mozilla/5.0 (Windows NT 10.0; Win64; x64) AppleWebKit/537.36 (KHTML, like Gecko) Chrome/120.0.0.0 Safari/537.36" version="21.7.2" etag="j9WV9aR3tptQX-mjAK2U" type="github">
  <diagram name="Page-1" id="DpKI5wnf5stAlC7cJ7uX">
    <mxGraphModel>
      <root>
        <mxCell id="0" />
        <mxCell id="1" parent="0" />
      </root>
    </mxGraphModel>
  </diagram>
</mxfile>
